<mxfile host="Electron" agent="Mozilla/5.0 (Windows NT 10.0; Win64; x64) AppleWebKit/537.36 (KHTML, like Gecko) draw.io/28.1.2 Chrome/138.0.7204.243 Electron/37.4.0 Safari/537.36" version="28.1.2">
  <diagram name="PÃ¡gina-1" id="L4wNdj2Cclo41QM7ifZ1">
    <mxGraphModel dx="2073" dy="756" grid="1" gridSize="10" guides="1" tooltips="1" connect="1" arrows="1" fold="1" page="1" pageScale="1" pageWidth="827" pageHeight="1169" math="0" shadow="0">
      <root>
        <mxCell id="0" />
        <mxCell id="1" parent="0" />
        <mxCell id="x99K-wKblTMteqQOfhrN-5" value="&lt;span style=&quot;font-size: 16px;&quot;&gt;Conrtroller&lt;/span&gt;" style="shape=folder;fontStyle=1;spacingTop=10;tabWidth=140;tabHeight=30;tabPosition=left;html=1;whiteSpace=wrap;align=right;verticalAlign=bottom;labelPosition=left;verticalLabelPosition=top;spacingBottom=-26;spacingRight=-102;spacingLeft=0;" parent="1" vertex="1">
          <mxGeometry x="-270" y="90" width="900" height="430" as="geometry" />
        </mxCell>
        <mxCell id="x99K-wKblTMteqQOfhrN-6" value="&lt;span style=&quot;font-size: 16px;&quot;&gt;Model&lt;/span&gt;" style="shape=folder;fontStyle=1;spacingTop=10;tabWidth=140;tabHeight=30;tabPosition=left;html=1;whiteSpace=wrap;align=right;verticalAlign=bottom;labelPosition=left;verticalLabelPosition=top;spacingBottom=-26;spacingRight=-102;spacingLeft=0;" parent="1" vertex="1">
          <mxGeometry x="-270" y="550" width="900" height="430" as="geometry" />
        </mxCell>
        <mxCell id="x99K-wKblTMteqQOfhrN-7" value="&lt;span style=&quot;font-size: 16px;&quot;&gt;Persistence&lt;/span&gt;" style="shape=folder;fontStyle=1;spacingTop=10;tabWidth=140;tabHeight=30;tabPosition=left;html=1;whiteSpace=wrap;align=right;verticalAlign=bottom;labelPosition=left;verticalLabelPosition=top;spacingBottom=-26;spacingRight=-102;spacingLeft=0;" parent="1" vertex="1">
          <mxGeometry x="-270" y="1010" width="1430" height="640" as="geometry" />
        </mxCell>
        <mxCell id="wqEjUONqBipsAAxTJUGe-1" value="&lt;span style=&quot;font-size: 16px;&quot;&gt;Model&lt;/span&gt;" style="shape=folder;fontStyle=1;spacingTop=10;tabWidth=140;tabHeight=30;tabPosition=left;html=1;whiteSpace=wrap;align=right;verticalAlign=bottom;labelPosition=left;verticalLabelPosition=top;spacingBottom=-26;spacingRight=-102;spacingLeft=0;" vertex="1" parent="1">
          <mxGeometry x="-240" y="1060" width="640" height="560" as="geometry" />
        </mxCell>
        <mxCell id="wqEjUONqBipsAAxTJUGe-2" value="&lt;span style=&quot;font-size: 16px;&quot;&gt;Repository&lt;/span&gt;" style="shape=folder;fontStyle=1;spacingTop=10;tabWidth=140;tabHeight=30;tabPosition=left;html=1;whiteSpace=wrap;align=right;verticalAlign=bottom;labelPosition=left;verticalLabelPosition=top;spacingBottom=-26;spacingRight=-102;spacingLeft=0;" vertex="1" parent="1">
          <mxGeometry x="430" y="1060" width="700" height="560" as="geometry" />
        </mxCell>
        <mxCell id="wqEjUONqBipsAAxTJUGe-19" value="User" style="swimlane;fontStyle=1;align=center;verticalAlign=top;childLayout=stackLayout;horizontal=1;startSize=26;horizontalStack=0;resizeParent=1;resizeParentMax=0;resizeLast=0;collapsible=1;marginBottom=0;whiteSpace=wrap;html=1;" vertex="1" parent="1">
          <mxGeometry x="-200" y="1130" width="170" height="242" as="geometry" />
        </mxCell>
        <mxCell id="wqEjUONqBipsAAxTJUGe-20" value="- id: int" style="text;strokeColor=none;fillColor=none;align=left;verticalAlign=top;spacingLeft=4;spacingRight=4;overflow=hidden;rotatable=0;points=[[0,0.5],[1,0.5]];portConstraint=eastwest;whiteSpace=wrap;html=1;" vertex="1" parent="wqEjUONqBipsAAxTJUGe-19">
          <mxGeometry y="26" width="170" height="26" as="geometry" />
        </mxCell>
        <mxCell id="wqEjUONqBipsAAxTJUGe-23" value="- username: String" style="text;strokeColor=none;fillColor=none;align=left;verticalAlign=top;spacingLeft=4;spacingRight=4;overflow=hidden;rotatable=0;points=[[0,0.5],[1,0.5]];portConstraint=eastwest;whiteSpace=wrap;html=1;" vertex="1" parent="wqEjUONqBipsAAxTJUGe-19">
          <mxGeometry y="52" width="170" height="26" as="geometry" />
        </mxCell>
        <mxCell id="wqEjUONqBipsAAxTJUGe-24" value="- email: String" style="text;strokeColor=none;fillColor=none;align=left;verticalAlign=top;spacingLeft=4;spacingRight=4;overflow=hidden;rotatable=0;points=[[0,0.5],[1,0.5]];portConstraint=eastwest;whiteSpace=wrap;html=1;" vertex="1" parent="wqEjUONqBipsAAxTJUGe-19">
          <mxGeometry y="78" width="170" height="26" as="geometry" />
        </mxCell>
        <mxCell id="wqEjUONqBipsAAxTJUGe-25" value="- password: String" style="text;strokeColor=none;fillColor=none;align=left;verticalAlign=top;spacingLeft=4;spacingRight=4;overflow=hidden;rotatable=0;points=[[0,0.5],[1,0.5]];portConstraint=eastwest;whiteSpace=wrap;html=1;" vertex="1" parent="wqEjUONqBipsAAxTJUGe-19">
          <mxGeometry y="104" width="170" height="26" as="geometry" />
        </mxCell>
        <mxCell id="wqEjUONqBipsAAxTJUGe-26" value="- racha: int" style="text;strokeColor=none;fillColor=none;align=left;verticalAlign=top;spacingLeft=4;spacingRight=4;overflow=hidden;rotatable=0;points=[[0,0.5],[1,0.5]];portConstraint=eastwest;whiteSpace=wrap;html=1;" vertex="1" parent="wqEjUONqBipsAAxTJUGe-19">
          <mxGeometry y="130" width="170" height="26" as="geometry" />
        </mxCell>
        <mxCell id="wqEjUONqBipsAAxTJUGe-27" value="- experience: int" style="text;strokeColor=none;fillColor=none;align=left;verticalAlign=top;spacingLeft=4;spacingRight=4;overflow=hidden;rotatable=0;points=[[0,0.5],[1,0.5]];portConstraint=eastwest;whiteSpace=wrap;html=1;" vertex="1" parent="wqEjUONqBipsAAxTJUGe-19">
          <mxGeometry y="156" width="170" height="26" as="geometry" />
        </mxCell>
        <mxCell id="wqEjUONqBipsAAxTJUGe-28" value="- lessons_id: int" style="text;strokeColor=none;fillColor=none;align=left;verticalAlign=top;spacingLeft=4;spacingRight=4;overflow=hidden;rotatable=0;points=[[0,0.5],[1,0.5]];portConstraint=eastwest;whiteSpace=wrap;html=1;" vertex="1" parent="wqEjUONqBipsAAxTJUGe-19">
          <mxGeometry y="182" width="170" height="26" as="geometry" />
        </mxCell>
        <mxCell id="wqEjUONqBipsAAxTJUGe-21" value="" style="line;strokeWidth=1;fillColor=none;align=left;verticalAlign=middle;spacingTop=-1;spacingLeft=3;spacingRight=3;rotatable=0;labelPosition=right;points=[];portConstraint=eastwest;strokeColor=inherit;" vertex="1" parent="wqEjUONqBipsAAxTJUGe-19">
          <mxGeometry y="208" width="170" height="8" as="geometry" />
        </mxCell>
        <mxCell id="wqEjUONqBipsAAxTJUGe-22" value="Getters and setters" style="text;strokeColor=none;fillColor=none;align=left;verticalAlign=top;spacingLeft=4;spacingRight=4;overflow=hidden;rotatable=0;points=[[0,0.5],[1,0.5]];portConstraint=eastwest;whiteSpace=wrap;html=1;" vertex="1" parent="wqEjUONqBipsAAxTJUGe-19">
          <mxGeometry y="216" width="170" height="26" as="geometry" />
        </mxCell>
      </root>
    </mxGraphModel>
  </diagram>
</mxfile>
